<?xml version="1.0" standalone="no"?><!DOCTYPE svg PUBLIC "-//W3C//DTD SVG 1.1//EN" "http://www.w3.org/Graphics/SVG/1.1/DTD/svg11.dtd"><svg t="1714030809047" class="icon" viewBox="0 0 1024 1024" version="1.1" xmlns="http://www.w3.org/2000/svg" p-id="2992" xmlns:xlink="http://www.w3.org/1999/xlink" width="200" height="200"><path d="M96 970.666667a416 32 0 1 0 832 0 416 32 0 1 0-832 0Z" fill="#45413C" opacity=".15" p-id="2993"></path><path d="M896 864c0 46.933333-38.4 85.333333-85.333333 85.333333H213.333333c-46.933333 0-85.333333-38.4-85.333333-85.333333V576c0-211.2 172.8-384 384-384s384 172.8 384 384v288z" fill="#DAEDF7" p-id="2994"></path><path d="M512 192C300.8 192 128 364.8 128 576v106.666667c0-211.2 172.8-384 384-384s384 172.8 384 384v-106.666667c0-211.2-172.8-384-384-384z" fill="#FFFFFF" p-id="2995"></path><path d="M650.666667 938.666667c0 23.466667-19.2 42.666667-42.666667 42.666666h-192c-23.466667 0-42.666667-19.2-42.666667-42.666666v-170.666667c0-23.466667 19.2-42.666667 42.666667-42.666667h192c23.466667 0 42.666667 19.2 42.666667 42.666667v170.666667z" fill="#C0DCEB" p-id="2996"></path><path d="M373.333333 821.333333h277.333334v42.666667h-277.333334z" fill="#ADC4D9" p-id="2997"></path><path d="M970.666667 778.666667l-74.666667 42.666666V554.666667l74.666667 42.666666zM53.333333 778.666667l74.666667 42.666666V554.666667l-74.666667 42.666666z" fill="#ADC4D9" p-id="2998"></path><path d="M768 74.666667m-53.333333 0a53.333333 53.333333 0 1 0 106.666666 0 53.333333 53.333333 0 1 0-106.666666 0Z" fill="#FF6242" p-id="2999"></path><path d="M650.666667 821.333333h-277.333334V768c0-23.466667 19.2-42.666667 42.666667-42.666667h192c23.466667 0 42.666667 19.2 42.666667 42.666667v53.333333z" fill="#FF6242" p-id="3000"></path><path d="M693.333333 533.333333m-106.666666 0a106.666667 106.666667 0 1 0 213.333333 0 106.666667 106.666667 0 1 0-213.333333 0Z" fill="#00DFEB" p-id="3001"></path><path d="M693.333333 533.333333m-42.666666 0a42.666667 42.666667 0 1 0 85.333333 0 42.666667 42.666667 0 1 0-85.333333 0Z" fill="#627B8C" p-id="3002"></path><path d="M330.666667 533.333333m-106.666667 0a106.666667 106.666667 0 1 0 213.333333 0 106.666667 106.666667 0 1 0-213.333333 0Z" fill="#00DFEB" p-id="3003"></path><path d="M330.666667 533.333333m-42.666667 0a42.666667 42.666667 0 1 0 85.333333 0 42.666667 42.666667 0 1 0-85.333333 0Z" fill="#627B8C" p-id="3004"></path></svg>